<svg width="117" height="24" viewBox="0 0 117 24" fill="none" xmlns="http://www.w3.org/2000/svg">
<g clip-path="url(#clip0_12681_6093)">
<path d="M111.559 10.3394C106.323 8.40151 102.939 9.03974 102.939 6.88599C102.939 3.783 110.417 5.86017 112.548 7.15289L114.757 3.32579C114.904 3.04377 114.934 2.71493 114.839 2.41129C114.744 2.10766 114.533 1.85398 114.251 1.70583C107.832 -1.36467 96.5895 -0.786771 96.5895 7.5776C96.5895 10.7874 98.2303 12.3679 100.651 13.4494C103.944 14.9278 109.742 14.7862 109.742 17.1001C109.742 20.3006 101.635 18.3789 99.2097 16.7961L96.6081 21.7116C103.285 25.302 116.043 25.4134 116.043 16.5709C116.043 13.02 114.223 11.3931 111.559 10.3371V10.3394ZM76.702 3.33739C76.6286 3.19739 76.5834 3.04426 76.5692 2.88678C76.5549 2.7293 76.5719 2.57056 76.6191 2.41965C76.6664 2.26874 76.7429 2.12862 76.8443 2.00733C76.9458 1.88604 77.0701 1.78595 77.2103 1.71279C83.6321 -1.3577 94.8744 -0.895852 94.8744 8.10676V23.4244H93.9924C91.4465 23.4244 91.7412 21.3124 89.4807 22.4334C85.0014 24.5477 80.9956 24.3737 78.4473 22.7514C78.5443 21.6922 78.9254 20.6787 79.5504 19.8181C80.1753 18.9574 81.021 18.2814 81.9983 17.8613C82.3092 18.3673 82.9777 18.7665 84.0638 18.85C87.0461 19.0751 89.1326 17.1233 89.1326 13.1407C86.8349 15.067 84.9411 14.6725 83.5532 15.0763C82.3278 15.3896 81.7638 16.5106 81.7871 17.1744C80.7396 17.6103 79.8216 18.3078 79.121 19.2002C78.4204 20.0926 77.9607 21.15 77.7859 22.271C76.2889 21.0409 75.4186 19.2214 75.4186 17.0513C75.4186 14.011 77.3055 11.4117 79.9721 10.3557C85.2126 8.41543 88.5199 9.05367 88.5199 6.89759C88.5199 3.79228 81.0467 5.87177 78.9115 7.16449L76.702 3.33739ZM13.1407 6.28953V23.4291H6.85582V6.28721H0V0.575572H19.9988V5.1291C19.9928 5.43898 19.8654 5.73411 19.6441 5.95109C19.4227 6.16807 19.1251 6.28959 18.8152 6.28953H18.792H13.1407ZM40.5686 0.575572V6.28721H27.9965V9.17668H37.7093V14.8906H27.9965V17.7151H40.5663V23.4291H22.2826V0.575572H40.5686ZM62.2779 19.9571C61.9275 19.9571 61.7302 19.776 61.5515 19.5022L56.5616 11.2214C56.6545 13.6583 56.6939 16.2344 56.6939 18.6945C56.6939 20.2773 56.6057 21.8555 56.5663 23.4291H50.85V0.575572H56.0162C56.2088 0.576754 56.3977 0.628914 56.5636 0.726749C56.7295 0.824584 56.8666 0.964605 56.9608 1.13258C59.1053 4.69974 62.2779 9.94256 62.2779 9.94256C62.2779 9.94256 65.4505 4.69974 67.5973 1.13258C67.6914 0.964946 67.8281 0.825143 67.9935 0.727329C68.159 0.629515 68.3474 0.577162 68.5396 0.575572H73.7058V23.4291H67.9896C67.9524 21.8555 67.8619 20.2773 67.8619 18.6945C67.8619 16.2344 67.9014 13.6583 67.9942 11.2214L63.0043 19.5022C62.8256 19.776 62.6284 19.9571 62.2779 19.9571ZM42.8523 0.573252H48.5663V23.4291H42.8523V0.573252Z" fill="#E7313A"/>
</g>
<defs>
<clipPath id="clip0_12681_6093">
<rect width="116.043" height="24" fill="white"/>
</clipPath>
</defs>
</svg>
